<svg width="1389" height="1389" viewBox="0 0 1389 1389" fill="none" xmlns="http://www.w3.org/2000/svg">
<circle cx="691.674" cy="671.037" r="585.721" fill="#F9E700"/>
<path d="M613.463 965.882L785.117 458.339L870.765 457.636L654.776 1056.12L593.716 1056.62L613.463 965.882ZM444.984 461.128L623.299 965.802L645.761 1056.19L584.701 1056.69L359.336 461.83L444.984 461.128Z" fill="#004415"/>
<path d="M1044.34 562.656V757.052C1037.77 766.778 1027.32 777.72 1012.97 789.877C998.628 801.791 978.812 812.247 953.524 821.243C928.48 829.996 896.141 834.373 856.508 834.373C824.17 834.373 794.384 828.781 767.152 817.596C740.162 806.168 716.699 789.634 696.76 767.994C677.065 746.11 661.747 719.607 650.806 688.485C640.107 657.119 634.758 621.619 634.758 581.986V540.772C634.758 501.139 639.378 465.761 648.617 434.639C658.1 403.516 671.959 377.134 690.195 355.494C708.432 333.611 730.801 317.077 757.304 305.892C783.807 294.464 814.201 288.75 848.484 288.75C889.09 288.75 923.009 295.801 950.242 309.904C977.717 323.763 999.114 342.972 1014.43 367.53C1029.99 392.088 1039.96 420.05 1044.34 451.416H973.949C970.788 432.207 964.466 414.7 954.983 398.896C945.743 383.091 932.492 370.448 915.228 360.965C897.965 351.239 875.717 346.376 848.484 346.376C823.927 346.376 802.651 350.874 784.658 359.871C766.665 368.867 751.833 381.754 740.162 398.531C728.491 415.308 719.738 435.611 713.902 459.44C708.31 483.268 705.514 510.136 705.514 540.043V581.986C705.514 612.622 709.039 639.977 716.091 664.048C723.385 688.12 733.719 708.666 747.092 725.686C760.465 742.463 776.391 755.229 794.87 763.982C813.593 772.735 834.26 777.112 856.873 777.112C881.917 777.112 902.22 775.045 917.782 770.912C933.343 766.535 945.5 761.429 954.254 755.593C963.007 749.515 969.694 743.801 974.313 738.451V619.552H851.402V562.656H1044.34Z" fill="#9EA80B"/>
<path d="M734.499 987.821H791.287V1009.11H734.499V987.821ZM736.521 1036.48H800.724V1058.45H709.391V940.172H798.533V962.138H736.521V1036.48Z" fill="#004415"/>
<path d="M815.274 1058.45V940.172H866.333C876.893 940.172 885.992 941.918 893.631 945.41C901.27 948.789 907.168 953.689 911.325 960.11C915.482 966.531 917.56 974.191 917.56 983.09C917.56 991.876 915.482 999.48 911.325 1005.9C907.168 1012.21 901.27 1017.05 893.631 1020.43C885.992 1023.81 876.893 1025.5 866.333 1025.5H830.44L842.572 1013.5V1058.45H815.274ZM890.261 1058.45L860.772 1015.53H889.924L919.751 1058.45H890.261ZM842.572 1016.55L830.44 1003.7H864.816C873.242 1003.7 879.533 1001.9 883.689 998.297C887.846 994.579 889.924 989.51 889.924 983.09C889.924 976.556 887.846 971.487 883.689 967.883C879.533 964.278 873.242 962.476 864.816 962.476H830.44L842.572 949.465V1016.55Z" fill="#004415"/>
<path d="M382.188 1143.83L461.123 1085.58L478.939 1095.69L469.594 1193.39L450.665 1182.66L461.179 1097.68L468.305 1101.72L400.671 1154.31L382.188 1143.83ZM409.028 1136.98L421.582 1125.99L461.666 1148.72L458.8 1165.2L409.028 1136.98Z" fill="#9EA80B"/>
<path d="M515.1 1210.78C508.601 1208.43 502.921 1205.19 498.06 1201.07C493.308 1196.9 489.597 1192.11 486.929 1186.7C484.26 1181.28 482.721 1175.51 482.311 1169.37C481.982 1163.26 482.965 1157.04 485.26 1150.7C487.555 1144.36 490.784 1138.95 494.948 1134.47C499.192 1130.01 504.072 1126.56 509.588 1124.11C515.183 1121.69 521.127 1120.44 527.419 1120.36C533.739 1120.2 540.189 1121.31 546.769 1123.69C554.07 1126.33 560.185 1130 565.112 1134.69C570.149 1139.32 573.788 1144.82 576.028 1151.16L559.327 1158.19C557.63 1153.85 555.307 1150.24 552.357 1147.36C549.437 1144.39 545.89 1142.16 541.718 1140.65C537.787 1139.22 533.944 1138.56 530.189 1138.65C526.435 1138.74 522.918 1139.56 519.639 1141.09C516.361 1142.63 513.444 1144.79 510.889 1147.59C508.414 1150.42 506.45 1153.83 504.998 1157.85C503.545 1161.86 502.866 1165.74 502.958 1169.5C503.131 1173.28 503.986 1176.81 505.521 1180.09C507.057 1183.37 509.237 1186.24 512.062 1188.72C514.887 1191.19 518.265 1193.14 522.197 1194.57C526.369 1196.08 530.511 1196.67 534.622 1196.34C538.763 1195.94 542.887 1194.57 546.996 1192.25L555.329 1208.33C549.546 1211.77 543.22 1213.7 536.353 1214.12C529.566 1214.57 522.482 1213.46 515.1 1210.78Z" fill="#9EA80B"/>
<path d="M548.12 1221.89L603.292 1140.78L623.448 1144.41L647.012 1239.68L625.596 1235.83L607.354 1152.17L615.417 1153.63L569.032 1225.65L548.12 1221.89ZM571.173 1206.53L579.378 1192.01L624.729 1200.17L627.484 1216.66L571.173 1206.53Z" fill="#9EA80B"/>
<path d="M650.369 1239.22L650.772 1149.62L691.476 1149.81C701.204 1149.85 709.771 1151.77 717.178 1155.55C724.586 1159.26 730.365 1164.45 734.516 1171.12C738.668 1177.79 740.723 1185.7 740.682 1194.83C740.641 1203.87 738.515 1211.76 734.303 1218.48C730.092 1225.12 724.266 1230.3 716.825 1234.02C709.384 1237.65 700.8 1239.45 691.072 1239.4L650.369 1239.22ZM671.181 1222.29L690.125 1222.38C696.098 1222.4 701.266 1221.32 705.628 1219.12C710.076 1216.83 713.503 1213.61 715.912 1209.44C718.405 1205.27 719.664 1200.37 719.69 1194.73C719.716 1189.02 718.5 1184.1 716.044 1180C713.674 1175.8 710.275 1172.59 705.847 1170.35C701.506 1168.03 696.348 1166.85 690.375 1166.83L671.431 1166.74L671.181 1222.29Z" fill="#9EA80B"/>
<path d="M761.69 1181.45L804.253 1174.44L806.872 1190.35L764.309 1197.36L761.69 1181.45ZM769.193 1217.57L817.313 1209.65L820.016 1226.07L751.561 1237.34L737.008 1148.93L803.821 1137.93L806.524 1154.35L760.045 1162L769.193 1217.57Z" fill="#9EA80B"/>
<path d="M830.266 1224.63L800.265 1140.2L816.427 1134.46L873.541 1181.27L864.978 1184.31L879.145 1112.17L895.186 1106.47L925.428 1190.81L907.096 1197.33L886.96 1141.04L890.337 1139.84L878.957 1197.27L870.153 1200.4L824.483 1163.24L828.584 1161.79L848.599 1218.11L830.266 1224.63Z" fill="#9EA80B"/>
<path d="M957.494 1172.06L939.368 1140.25L949.694 1148.81L882.992 1111.39L902.12 1100.49L953.273 1129.23L942.263 1135.51L943.712 1076.78L961.394 1066.71L959.591 1143.17L957.384 1129.99L975.51 1161.79L957.494 1172.06Z" fill="#9EA80B"/>
</svg>
