<svg width="968" height="1087" viewBox="0 0 968 1087" fill="none" xmlns="http://www.w3.org/2000/svg">
<path d="M358.812 956.072L601.176 239.453L722.105 238.462L417.142 1083.47L330.93 1084.18L358.812 956.072ZM120.929 243.391L372.698 955.958L404.413 1083.58L318.2 1084.29L0 244.383L120.929 243.391Z" fill="#81C784"/>
<path d="M967.182 386.737V661.212C957.913 674.944 943.15 690.393 922.895 707.559C902.64 724.381 874.66 739.143 838.956 751.845C803.595 764.205 757.935 770.384 701.976 770.384C656.316 770.384 614.261 762.488 575.81 746.696C537.703 730.56 504.574 707.215 476.423 676.661C448.615 645.763 426.986 608.343 411.537 564.399C396.432 520.112 388.879 469.989 388.879 414.03V355.839C388.879 299.88 395.402 249.929 408.447 205.985C421.837 162.042 441.405 124.793 467.153 94.2382C492.901 63.3404 524.486 39.9954 561.906 24.2032C599.327 8.06775 642.241 0 690.647 0C747.98 0 795.871 9.95594 834.322 29.8678C873.115 49.4364 903.327 76.5578 924.955 111.232C946.927 145.906 961.002 185.387 967.182 229.673H867.794C863.331 202.552 854.405 177.834 841.016 155.519C827.97 133.204 809.26 115.352 784.885 101.963C760.51 88.2303 729.098 81.3641 690.647 81.3641C655.973 81.3641 625.933 87.7153 600.529 100.418C575.124 113.12 554.182 131.315 537.703 155.004C521.224 178.692 508.865 207.358 500.626 241.003C492.73 274.647 488.782 312.582 488.782 354.809V414.03C488.782 457.287 493.76 495.909 503.716 529.897C514.015 563.884 528.605 592.894 547.487 616.925C566.369 640.614 588.856 658.637 614.947 670.996C641.382 683.355 670.563 689.535 702.491 689.535C737.852 689.535 766.518 686.617 788.49 680.781C810.462 674.601 827.627 667.392 839.986 659.152C852.345 650.569 861.786 642.502 868.309 634.949V467.071H694.767V386.737H967.182Z" fill="#81C784"/>
</svg>
