<svg width="1389" height="1389" viewBox="0 0 1389 1389" fill="none" xmlns="http://www.w3.org/2000/svg">
<circle cx="691.678" cy="671.037" r="585.721" fill="#F9E700"/>
<path d="M613.463 965.884L785.117 458.341L870.765 457.638L654.776 1056.12L593.716 1056.62L613.463 965.884ZM444.984 461.13L623.299 965.804L645.761 1056.19L584.701 1056.69L359.336 461.832L444.984 461.13Z" fill="#004415"/>
<path d="M1044.34 562.656V757.052C1037.77 766.778 1027.32 777.72 1012.97 789.877C998.624 801.791 978.808 812.247 953.52 821.243C928.476 829.996 896.137 834.373 856.504 834.373C824.166 834.373 794.38 828.781 767.148 817.596C740.158 806.168 716.695 789.634 696.757 767.994C677.062 746.111 661.743 719.607 650.802 688.485C640.103 657.118 634.754 621.619 634.754 581.986V540.772C634.754 501.139 639.374 465.761 648.613 434.639C658.096 403.516 671.955 377.134 690.192 355.494C708.428 333.611 730.797 317.077 757.3 305.892C783.803 294.464 814.197 288.75 848.481 288.75C889.086 288.75 923.005 295.801 950.238 309.904C977.713 323.763 999.11 342.972 1014.43 367.53C1029.99 392.088 1039.96 420.05 1044.34 451.416H973.945C970.784 432.207 964.462 414.7 954.979 398.896C945.74 383.091 932.488 370.448 915.225 360.965C897.961 351.239 875.713 346.376 848.481 346.376C823.923 346.376 802.647 350.874 784.654 359.871C766.661 368.867 751.829 381.754 740.158 398.531C728.487 415.308 719.734 435.611 713.898 459.44C708.306 483.268 705.51 510.136 705.51 540.043V581.986C705.51 612.622 709.035 639.977 716.087 664.048C723.381 688.12 733.715 708.666 747.088 725.686C760.461 742.463 776.387 755.229 794.867 763.982C813.589 772.735 834.256 777.112 856.869 777.112C881.913 777.112 902.216 775.045 917.778 770.912C933.339 766.535 945.496 761.429 954.25 755.593C963.003 749.515 969.69 743.801 974.309 738.451V619.552H851.398V562.656H1044.34Z" fill="#9EA80B"/>
<path d="M734.499 987.821H791.287V1009.11H734.499V987.821ZM736.521 1036.48H800.724V1058.45H709.391V940.172H798.533V962.138H736.521V1036.48Z" fill="#004415"/>
<path d="M815.274 1058.45V940.172H866.333C876.893 940.172 885.992 941.918 893.631 945.41C901.27 948.789 907.168 953.689 911.325 960.11C915.482 966.531 917.56 974.191 917.56 983.09C917.56 991.876 915.482 999.48 911.325 1005.9C907.168 1012.21 901.27 1017.05 893.631 1020.43C885.992 1023.81 876.893 1025.5 866.333 1025.5H830.44L842.572 1013.5V1058.45H815.274ZM890.261 1058.45L860.772 1015.53H889.924L919.751 1058.45H890.261ZM842.572 1016.55L830.44 1003.7H864.816C873.242 1003.7 879.533 1001.9 883.689 998.297C887.846 994.579 889.924 989.51 889.924 983.09C889.924 976.556 887.846 971.487 883.689 967.883C879.533 964.278 873.242 962.476 864.816 962.476H830.44L842.572 949.465V1016.55Z" fill="#004415"/>
<path d="M382.192 1143.83L461.127 1085.58L478.942 1095.69L469.598 1193.39L450.669 1182.66L461.183 1097.68L468.309 1101.72L400.675 1154.31L382.192 1143.83ZM409.032 1136.98L421.586 1125.99L461.67 1148.72L458.804 1165.2L409.032 1136.98Z" fill="#9EA80B"/>
<path d="M515.1 1210.78C508.601 1208.43 502.921 1205.19 498.06 1201.07C493.308 1196.9 489.597 1192.11 486.929 1186.7C484.26 1181.28 482.721 1175.51 482.311 1169.37C481.982 1163.26 482.965 1157.04 485.26 1150.7C487.555 1144.36 490.784 1138.95 494.948 1134.47C499.192 1130.01 504.072 1126.56 509.588 1124.11C515.183 1121.69 521.127 1120.44 527.419 1120.36C533.739 1120.2 540.189 1121.31 546.769 1123.69C554.07 1126.33 560.185 1130 565.112 1134.69C570.149 1139.32 573.788 1144.81 576.028 1151.16L559.327 1158.18C557.63 1153.85 555.307 1150.24 552.357 1147.36C549.437 1144.39 545.89 1142.16 541.718 1140.65C537.787 1139.22 533.944 1138.56 530.189 1138.65C526.435 1138.74 522.918 1139.56 519.639 1141.09C516.361 1142.63 513.444 1144.79 510.889 1147.59C508.414 1150.41 506.45 1153.83 504.998 1157.84C503.545 1161.86 502.866 1165.74 502.958 1169.49C503.131 1173.28 503.986 1176.81 505.521 1180.09C507.057 1183.36 509.237 1186.24 512.062 1188.72C514.887 1191.19 518.265 1193.14 522.197 1194.56C526.369 1196.07 530.511 1196.67 534.622 1196.34C538.763 1195.93 542.887 1194.57 546.996 1192.24L555.329 1208.33C549.546 1211.77 543.22 1213.7 536.353 1214.12C529.566 1214.57 522.482 1213.45 515.1 1210.78Z" fill="#9EA80B"/>
<path d="M548.12 1221.89L603.292 1140.78L623.448 1144.41L647.012 1239.68L625.596 1235.83L607.354 1152.17L615.417 1153.63L569.032 1225.65L548.12 1221.89ZM571.173 1206.53L579.378 1192.01L624.729 1200.17L627.484 1216.66L571.173 1206.53Z" fill="#9EA80B"/>
<path d="M650.365 1239.22L650.768 1149.62L691.472 1149.81C701.2 1149.85 709.767 1151.77 717.174 1155.56C724.582 1159.26 730.361 1164.45 734.512 1171.12C738.664 1177.8 740.719 1185.7 740.678 1194.83C740.637 1203.88 738.511 1211.76 734.299 1218.48C730.088 1225.12 724.262 1230.3 716.821 1234.02C709.381 1237.65 700.796 1239.45 691.068 1239.41L650.365 1239.22ZM671.177 1222.29L690.121 1222.38C696.094 1222.41 701.262 1221.32 705.624 1219.12C710.072 1216.84 713.5 1213.61 715.908 1209.44C718.401 1205.27 719.661 1200.37 719.686 1194.74C719.712 1189.02 718.496 1184.11 716.04 1180C713.67 1175.81 710.271 1172.59 705.844 1170.35C701.502 1168.03 696.345 1166.85 690.371 1166.83L671.427 1166.74L671.177 1222.29Z" fill="#9EA80B"/>
<path d="M761.69 1181.45L804.253 1174.44L806.872 1190.35L764.309 1197.36L761.69 1181.45ZM769.193 1217.57L817.313 1209.65L820.016 1226.07L751.561 1237.34L737.008 1148.93L803.821 1137.93L806.524 1154.35L760.045 1162L769.193 1217.57Z" fill="#9EA80B"/>
<path d="M830.266 1224.63L800.265 1140.2L816.427 1134.46L873.541 1181.27L864.978 1184.31L879.145 1112.17L895.186 1106.47L925.428 1190.81L907.096 1197.33L886.96 1141.04L890.337 1139.84L878.957 1197.27L870.153 1200.4L824.483 1163.24L828.584 1161.79L848.599 1218.11L830.266 1224.63Z" fill="#9EA80B"/>
<path d="M957.494 1172.06L939.368 1140.25L949.694 1148.81L882.992 1111.39L902.12 1100.49L953.273 1129.24L942.263 1135.51L943.712 1076.79L961.394 1066.71L959.591 1143.17L957.384 1129.99L975.51 1161.79L957.494 1172.06Z" fill="#9EA80B"/>
</svg>
